<svg xmlns="http://www.w3.org/2000/svg" viewBox="0 0 64 64">
  <rect width="64" height="64" rx="14" fill="#2A1F14"/>
  <!-- Pétale central -->
  <path d="M32 8C29 14 26 20 26 27c0 5 2 9 6 13 4-4 6-8 6-13 0-7-3-13-6-19z" fill="url(#g1)"/>
  <!-- Pétale gauche -->
  <path d="M26 24c-5-3-12-5-17-3-3 2-4 6-1 9 3 4 10 3 15 0 3-2 3-5 3-6z" fill="url(#g2)"/>
  <!-- Pétale droit -->
  <path d="M38 24c5-3 12-5 17-3 3 2 4 6 1 9-3 4-10 3-15 0-3-2-3-5-3-6z" fill="url(#g2)"/>
  <!-- Base -->
  <path d="M27 34c-1 3-1 6-1 6h12s0-3-1-6c-2 2-5 3-5 3s-3-1-5-3z" fill="#D4922A"/>
  <rect x="22" y="40" width="20" height="4" rx="2" fill="#C47820"/>
  <!-- Tige -->
  <path d="M29 44c0 5 1 9 3 12 2-3 3-7 3-12z" fill="#B07848"/>
  <defs>
    <linearGradient id="g1" x1="32" y1="8" x2="32" y2="40" gradientUnits="userSpaceOnUse">
      <stop offset="0%" stop-color="#F7D060"/>
      <stop offset="55%" stop-color="#E8A830"/>
      <stop offset="100%" stop-color="#C47820"/>
    </linearGradient>
    <linearGradient id="g2" x1="0%" y1="50%" x2="100%" y2="50%">
      <stop offset="0%" stop-color="#F0BC3A"/>
      <stop offset="100%" stop-color="#D4902A"/>
    </linearGradient>
  </defs>
</svg>
